<?xml version="1.0" encoding="utf-8"?>
<!-- Generator: Adobe Illustrator 14.0.0, SVG Export Plug-In . SVG Version: 6.00 Build 43363)  -->
<!DOCTYPE svg PUBLIC "-//W3C//DTD SVG 1.1//EN" "http://www.w3.org/Graphics/SVG/1.1/DTD/svg11.dtd">
<svg version="1.1" id="Layer_1" xmlns="http://www.w3.org/2000/svg" xmlns:xlink="http://www.w3.org/1999/xlink" x="0px" y="0px"
	 width="19px" height="19.844px" viewBox="0 0 19 19.844" enable-background="new 0 0 19 19.844" xml:space="preserve">
<title>1F3923F7-5BB4-4024-99E2-61D8F1250323</title>
<desc>Created with sketchtool.</desc>
<g id="Index">
	<g id="Desktop-HD" transform="translate(-855.000000, -274.000000)">
		<g id="checkbox-copy-4-_x2B_-tablet-card-copy-2" transform="translate(392.179875, 91.000000)">
			<g id="tablet-card-copy-2" transform="translate(-0.000000, 0.000000)">
				<g id="Overview" transform="translate(314.000000, 180.000000)">
					<g id="ic_x5F_card_x5F_bathroom-_x2B_-2-banheiros" transform="translate(125.000000, 0.000000)">
						<g id="ic_card_bathroom" transform="translate(21.000000, 0.000000)">
							<rect id="Rectangle-3" x="0" fill="none" width="24" height="24"/>
							<path id="Fill-1" fill="#999999" d="M15,13H9v1c-1.93,0-3,0-3-2c0.553,0,1-0.448,1-1l1-7c0-0.552-0.447-1-1-1H4
								C3.448,3,3,3.448,3,4v7c0,0.552,0.448,1,1,1c0,3,2.52,4,5,4c0.085,0,0.175-0.007,0.263-0.012C9.607,16.592,10.255,17,11,17v1
								H9v2h11c0-1.104-0.895-2-2-2h-2v-1c2.762,0,5-0.896,5-2v-2H15z M19,10H9v2h12C21,10.896,20.105,10,19,10z"/>
						</g>
					</g>
				</g>
			</g>
		</g>
	</g>
</g>
</svg>
