<?xml version="1.0" encoding="utf-8"?>
<!-- Generator: Adobe Illustrator 14.0.0, SVG Export Plug-In . SVG Version: 6.00 Build 43363)  -->
<!DOCTYPE svg PUBLIC "-//W3C//DTD SVG 1.1//EN" "http://www.w3.org/Graphics/SVG/1.1/DTD/svg11.dtd">
<svg version="1.1" id="Layer_1" xmlns="http://www.w3.org/2000/svg" xmlns:xlink="http://www.w3.org/1999/xlink" x="0px" y="0px"
	 width="21px" height="19.844px" viewBox="0 0 21 19.844" enable-background="new 0 0 21 19.844" xml:space="preserve">
<title>E555C66C-0B68-4E28-8B06-B4F9F7180D00</title>
<desc>Created with sketchtool.</desc>
<g id="Index">
	<g id="Desktop-HD" transform="translate(-770.000000, -275.000000)">
		<g id="checkbox-copy-4-_x2B_-tablet-card-copy-2" transform="translate(392.179875, 91.000000)">
			<g id="tablet-card-copy-2" transform="translate(-0.000000, 0.000000)">
				<g id="Overview" transform="translate(314.000000, 180.000000)">
					<g id="ic_x5F_card_x5F_beds-_x2B_-2-quartos-" transform="translate(45.000000, 0.000000)">
						<g id="ic_card_beds" transform="translate(17.000000, 0.000000)">
							<path id="Fill-1" fill="#999999" d="M4,20H2V5c0-0.552,0.448-1,1-1c0.553,0,1,0.448,1,1V20z M20,16h2v3.98h-2V16z M4,16h16v2
								H4V16z M19,9h-6v6h9v-3C22,10.343,20.657,9,19,9z M9,10c0,1.104-0.895,2-2,2c-1.104,0-2-0.896-2-2s0.896-2,2-2
								C8.105,8,9,8.896,9,10z M10,15H6c-0.552,0-1-0.447-1-1s0.448-1,1-1h4V15z M11,15h-1V9c0-0.552,0.448-1,1-1
								c0.553,0,1,0.448,1,1v5C12,14.55,11.55,15,11,15z"/>
							<rect id="Rectangle-1" x="0" fill="none" width="24" height="24"/>
						</g>
					</g>
				</g>
			</g>
		</g>
	</g>
</g>
</svg>
