<?xml version="1.0" encoding="utf-8"?>
<!-- Generator: Adobe Illustrator 14.0.0, SVG Export Plug-In . SVG Version: 6.00 Build 43363)  -->
<!DOCTYPE svg PUBLIC "-//W3C//DTD SVG 1.1//EN" "http://www.w3.org/Graphics/SVG/1.1/DTD/svg11.dtd">
<svg version="1.1" id="Layer_1" xmlns="http://www.w3.org/2000/svg" xmlns:xlink="http://www.w3.org/1999/xlink" x="0px" y="0px"
	 width="19px" height="19.917px" viewBox="0 0 19 19.917" enable-background="new 0 0 19 19.917" xml:space="preserve">
<title>8261A30F-4387-4CCA-B0D0-C9A489AE7E2E</title>
<desc>Created with sketchtool.</desc>
<g id="Index">
	<g id="Desktop-HD" transform="translate(-714.000000, -274.000000)">
		<g id="checkbox-copy-4-_x2B_-tablet-card-copy-2" transform="translate(392.179875, 91.000000)">
			<g id="tablet-card-copy-2" transform="translate(-0.000000, 0.000000)">
				<g id="Overview" transform="translate(314.000000, 180.000000)">
					<g id="ic_x5F_card_x5F_area-_x2B_-73-m_xB2_" transform="translate(-0.000000, 0.000000)">
						<g id="ic_card_area" transform="translate(5.000000, 0.000000)">
							<path id="Fill-1" fill="#999999" d="M6,12.707v4.561c0.006,0.003,0.011,0.006,0.017,0.01L17.277,6.016
								C17.274,6.011,17.271,6.005,17.267,6h-4.56L6,12.707z M6,11.293V6.732C6.303,6.557,6.557,6.304,6.732,6h4.561L6,11.293z
								 M11.293,18H6.732c-0.003-0.006-0.006-0.011-0.009-0.016L17.984,6.723C17.989,6.726,17.995,6.729,18,6.732v4.561L11.293,18z
								 M12.708,18h4.56c0.176-0.304,0.429-0.557,0.732-0.732v-4.561L12.708,18z M6.732,4C6.386,3.402,5.741,3,5,3
								C3.895,3,3,3.896,3,5c0,0.74,0.402,1.387,1,1.732v10.535C3.402,17.613,3,18.26,3,19c0,1.104,0.896,2,2,2
								c0.741,0,1.387-0.402,1.732-1h10.535c0.346,0.598,0.992,1,1.732,1c1.105,0,2-0.896,2-2c0-0.74-0.401-1.387-1-1.732V6.732
								C20.598,6.387,21,5.74,21,5c0-1.104-0.895-2-2-2c-0.74,0-1.387,0.402-1.732,1H6.732z"/>
							<rect id="Rectangle-1" x="0" fill="none" width="24" height="24"/>
						</g>
					</g>
				</g>
			</g>
		</g>
	</g>
</g>
</svg>
